<?xml version="1.0" encoding="UTF-8" standalone="no"?>
<!DOCTYPE svg PUBLIC "-//W3C//DTD SVG 1.0//EN" "http://www.w3.org/TR/2001/REC-SVG-20010904/DTD/svg10.dtd">
<svg xmlns="http://www.w3.org/2000/svg" version="1.0" viewBox="0.00 0.00 512.00 512.00">
<path fill="#9cc02e" d="
  M 510.93 255.99
  A 254.93 254.93 0.0 0 1 256.00 510.92
  A 254.93 254.93 0.0 0 1 1.07 255.99
  A 254.93 254.93 0.0 0 1 256.00 1.06
  A 254.93 254.93 0.0 0 1 510.93 255.99
  Z
  M 234.54 242.32
  C 258.70 231.33 270.70 204.68 271.44 179.50
  Q 272.20 153.95 265.21 129.40
  C 263.26 122.58 256.20 101.52 246.67 103.20
  C 239.76 104.42 239.00 109.77 239.00 116.20
  Q 239.02 143.50 238.98 170.79
  Q 238.97 175.26 238.28 176.98
  C 236.33 181.81 228.57 182.38 225.96 178.05
  Q 224.76 176.05 224.76 171.59
  Q 224.76 144.20 224.73 116.83
  C 224.72 110.38 223.63 105.20 217.11 103.47
  C 207.80 101.01 201.37 106.02 201.44 115.24
  Q 201.66 144.04 201.36 172.84
  Q 201.33 176.20 200.25 177.93
  C 197.68 182.04 190.73 181.95 188.41 177.99
  Q 187.22 175.97 187.23 171.29
  Q 187.29 144.39 187.22 117.50
  C 187.20 110.18 186.73 103.72 178.31 103.14
  C 170.36 102.59 163.89 120.11 161.98 126.25
  C 149.97 164.75 147.91 220.64 191.17 242.22
  C 194.67 243.96 195.60 246.06 195.48 249.75
  Q 193.35 317.75 191.32 385.75
  C 190.54 411.65 226.30 417.84 233.64 394.01
  Q 235.04 389.44 234.68 377.99
  Q 232.76 317.40 230.89 256.81
  C 230.73 251.66 229.26 244.72 234.54 242.32
  Z
  M 294.05 229.64
  C 296.12 247.47 300.51 260.84 316.56 269.53
  C 319.63 271.19 320.96 273.13 320.88 276.50
  Q 319.55 330.58 318.16 384.66
  Q 317.98 391.75 318.78 394.77
  C 323.53 412.65 349.30 413.82 355.97 396.96
  Q 357.50 393.08 357.50 383.34
  Q 357.50 247.87 357.50 112.41
  C 357.50 108.59 356.35 103.85 352.04 103.14
  C 342.67 101.60 328.20 119.78 323.06 127.06
  C 301.87 157.07 289.80 192.95 294.05 229.64
  Z"
/>
</svg>
