<svg aria-hidden="true" style="position: absolute; width: 0; height: 0; overflow: hidden;" version="1.1"
     xmlns="http://www.w3.org/2000/svg">
  <defs>

    <!-- Rating star -->
    <symbol id="star" viewBox="0 0 34 32">
      <path
        d="M14.89 2.282c0.737-2.268 3.945-2.268 4.682 0l2.080 6.402c0.33 1.014 1.275 1.701 2.341 1.701h6.731c2.384 0 3.376 3.051 1.447 4.453l-5.446 3.957c-0.863 0.627-1.224 1.738-0.894 2.752l2.080 6.402c0.737 2.268-1.859 4.154-3.788 2.752l-5.446-3.957c-0.863-0.627-2.031-0.627-2.894 0l-5.446 3.957c-1.929 1.402-4.525-0.484-3.788-2.752l2.080-6.402c0.33-1.014-0.031-2.125-0.894-2.752l-5.446-3.957c-1.929-1.402-0.938-4.453 1.447-4.453h6.731c1.066 0 2.012-0.687 2.341-1.701l2.080-6.402z"></path>
    </symbol>

    <!-- Pagination arrow -->
    <symbol id="pagination-arrow" viewBox="0 0 18 32">
      <path
        d="M5.943 17.623c-0.214-0.212-0.384-0.465-0.5-0.744s-0.176-0.577-0.176-0.879c0-0.302 0.060-0.601 0.176-0.879s0.286-0.531 0.5-0.744l10.491-10.469c0.214-0.212 0.384-0.465 0.5-0.744s0.176-0.577 0.176-0.879c0-0.302-0.060-0.601-0.176-0.879s-0.286-0.531-0.5-0.744c-0.428-0.426-1.008-0.665-1.611-0.665s-1.183 0.239-1.611 0.665l-10.491 10.491c-1.284 1.286-2.005 3.029-2.005 4.846s0.721 3.56 2.005 4.846l10.491 10.491c0.426 0.422 1 0.66 1.6 0.663 0.301 0.002 0.599-0.056 0.877-0.17s0.532-0.281 0.745-0.493c0.214-0.213 0.384-0.465 0.5-0.744s0.176-0.577 0.176-0.879-0.060-0.6-0.176-0.879c-0.116-0.279-0.286-0.531-0.5-0.744l-10.491-10.469z"></path>
    </symbol>

    <!-- Burger menu -->
    <symbol id="burger-menu" viewBox="0 0 32 32">
      <path stroke-linecap="round" stroke-linejoin="round" stroke-width="2"
            d="M28 13.333H4M28 8H4M28 18.667H4M28 24H4"/>
    </symbol>

    <!-- Cart -->
    <symbol id="cart" viewBox="0 0 24 24">
      <path
        d="M9 22C9.55228 22 10 21.5523 10 21C10 20.4477 9.55228 20 9 20C8.44772 20 8 20.4477 8 21C8 21.5523 8.44772 22 9 22Z"
        stroke-width="2" stroke-linecap="round" stroke-linejoin="round"/>
      <path
        d="M20 22C20.5523 22 21 21.5523 21 21C21 20.4477 20.5523 20 20 20C19.4477 20 19 20.4477 19 21C19 21.5523 19.4477 22 20 22Z"
        stroke-width="2" stroke-linecap="round" stroke-linejoin="round"/>
      <path
        d="M1 1H5L7.68 14.39C7.77144 14.8504 8.02191 15.264 8.38755 15.5583C8.75318 15.8526 9.2107 16.009 9.68 16H19.4C19.8693 16.009 20.3268 15.8526 20.6925 15.5583C21.0581 15.264 21.3086 14.8504 21.4 14.39L23 6H6"
        stroke-width="1.8" stroke-linecap="round" stroke-linejoin="round"/>
    </symbol>

    <!-- Search magnifier -->
    <symbol id="search-magnifier" viewBox="0 0 32 32">
      <path
        d="M30.565 28.436l-5.565-5.52c2.16-2.693 3.206-6.112 2.923-9.553s-1.874-6.643-4.445-8.947-5.928-3.536-9.379-3.441c-3.451 0.094-6.735 1.508-9.177 3.949s-3.855 5.725-3.949 9.177c-0.094 3.451 1.137 6.808 3.441 9.379s5.506 4.162 8.947 4.445c3.441 0.283 6.86-0.763 9.553-2.923l5.52 5.52c0.139 0.141 0.305 0.252 0.488 0.328s0.379 0.115 0.577 0.115c0.198 0 0.394-0.039 0.577-0.115s0.349-0.188 0.488-0.328c0.27-0.28 0.421-0.654 0.421-1.043s-0.151-0.763-0.421-1.042zM14.5 25.001c-2.077 0-4.107-0.616-5.833-1.77s-3.073-2.794-3.867-4.712c-0.795-1.919-1.003-4.030-0.598-6.067s1.405-3.908 2.874-5.376c1.468-1.468 3.339-2.468 5.376-2.874s4.148-0.197 6.067 0.598c1.919 0.795 3.559 2.141 4.712 3.867s1.77 3.757 1.77 5.833c0 2.785-1.106 5.455-3.075 7.425s-4.64 3.075-7.425 3.075z"></path>
    </symbol>

    <!-- Dropdown icon -->
    <symbol id="dropdown" viewBox="0 0 32 32">
      <path stroke-linejoin="round" stroke-linecap="round" stroke-miterlimit="4" stroke-width="3.5556"
            d="M8 12l8 8 8-8"></path>
    </symbol>

    <!-- Clear search input -->
    <symbol id="close-search" viewBox="0 0 32 32">
      <path stroke-linejoin="round" stroke-linecap="round" stroke-miterlimit="4" stroke-width="3.5556"
            d="M24 8l-16 16"></path>
      <path stroke-linejoin="round" stroke-linecap="round" stroke-miterlimit="4" stroke-width="3.5556"
            d="M8 8l16 16"></path>
    </symbol>

    <!-- Close header modal -->
    <symbol id="close-header-modal" viewBox="0 0 32 32">
      <path fill="none" stroke="#f8f8f8" style="stroke: var(--color2, #f8f8f8)" stroke-linejoin="round"
            stroke-linecap="round" stroke-miterlimit="4" stroke-width="2" d="M24 8l-16 16"></path>
      <path fill="none" stroke="#f8f8f8" style="stroke: var(--color2, #f8f8f8)" stroke-linejoin="round"
            stroke-linecap="round" stroke-miterlimit="4" stroke-width="2" d="M8 8l16 16"></path>
    </symbol>

    <!-- Close pop-up  -->
    <symbol id="close-pop-up" viewBox="0 0 32 32">
      <path stroke-linejoin="round" stroke-linecap="round" stroke-miterlimit="4" stroke-width="2.6667"
            d="M24 8l-16 16"></path>
      <path stroke-linejoin="round" stroke-linecap="round" stroke-miterlimit="4" stroke-width="2.6667"
            d="M8 8l16 16"></path>
    </symbol>

    <!-- Reset the filter -->
    <symbol id="close-reset-filter" viewBox="0 0 32 32">
      <path fill="none" stroke-linejoin="round"
            stroke-linecap="round" stroke-miterlimit="4" stroke-width="3" d="M24 8l-16 16"></path>
      <path fill="none" stroke-linejoin="round"
            stroke-linecap="round" stroke-miterlimit="4" stroke-width="3" d="M8 8l16 16"></path>
    </symbol>

    <!-- Watch video icon -->
    <symbol id="video-watch" viewBox="0 0 32 32">
      <path fill="none" stroke="#f8f8f8" style="stroke: var(--color1, #f8f8f8)" stroke-linejoin="round"
            stroke-linecap="round" stroke-miterlimit="4" stroke-width="1.6842"
            d="M30.053 8.56c-0.158-0.633-0.481-1.213-0.935-1.681s-1.024-0.808-1.652-0.986c-2.293-0.56-11.467-0.56-11.467-0.56s-9.173 0-11.467 0.613c-0.628 0.178-1.197 0.518-1.652 0.986s-0.777 1.048-0.935 1.681c-0.42 2.327-0.625 4.688-0.613 7.053-0.015 2.383 0.19 4.762 0.613 7.107 0.175 0.613 0.504 1.171 0.958 1.619s1.014 0.772 1.629 0.941c2.293 0.613 11.467 0.613 11.467 0.613s9.173 0 11.467-0.613c0.628-0.178 1.197-0.518 1.652-0.986s0.777-1.048 0.935-1.681c0.416-2.31 0.622-4.653 0.613-7 0.015-2.383-0.19-4.762-0.613-7.107z"></path>
      <path fill="none" stroke="#f8f8f8" style="stroke: var(--color1, #f8f8f8)" stroke-linejoin="round"
            stroke-linecap="round" stroke-miterlimit="4" stroke-width="1.6842"
            d="M13 20.027l7.667-4.36-7.667-4.36v8.72z"></path>
    </symbol>

    <!-- Heart -->
    <symbol id="like" viewBox="0 0 32 32">
      <path stroke-linejoin="round"
            stroke-linecap="round" stroke-miterlimit="4" stroke-width="2.9091"
            d="M15.991 6.848c-2.666-3.117-7.111-3.955-10.451-1.101s-3.81 7.625-1.187 11c2.181 2.806 8.781 8.725 10.944 10.641 0.242 0.214 0.363 0.321 0.504 0.364 0.123 0.037 0.258 0.037 0.381 0 0.141-0.042 0.262-0.149 0.504-0.364 2.163-1.916 8.763-7.834 10.944-10.641 2.623-3.375 2.21-8.177-1.187-11.001s-7.786-2.015-10.451 1.101z"></path>
    </symbol>

    <!-- Chef hat -->
    <symbol id="chef-hat" viewBox="0 0 37 32">
      <path fill="#9bb537" style="fill: var(--color1, #9bb537)" d="M7.325 12.723h23.133v17.735h-23.133v-17.735z"></path>
      <path fill="#9bb537" style="fill: var(--color1, #9bb537)"
            d="M16.578 11.373c0 4.578-3.711 8.289-8.289 8.289s-8.289-3.711-8.289-8.289c0-4.578 3.711-8.289 8.289-8.289s8.289 3.711 8.289 8.289z"></path>
      <path fill="#9bb537" style="fill: var(--color1, #9bb537)"
            d="M26.988 8.289c0 4.578-3.711 8.289-8.289 8.289s-8.289-3.711-8.289-8.289c0-4.578 3.711-8.289 8.289-8.289s8.289 3.711 8.289 8.289z"></path>
      <path fill="#9bb537" style="fill: var(--color1, #9bb537)"
            d="M37.398 11.373c0 4.578-3.711 8.289-8.289 8.289s-8.289-3.711-8.289-8.289c0-4.578 3.711-8.289 8.289-8.289s8.289 3.711 8.289 8.289z"></path>
      <path fill="#f8f8f8" style="fill: var(--color2, #f8f8f8)"
            d="M7.325 29.301h23.133v2.036c0 0.366-0.324 0.663-0.723 0.663h-21.687c-0.399 0-0.723-0.297-0.723-0.663v-2.036z"></path>
      <path fill="#f8f8f8" style="fill: var(--color2, #f8f8f8)"
            d="M14.265 10.36c0-0.611 0.432-1.107 0.964-1.107s0.964 0.495 0.964 1.107v5.112c0 0.611-0.432 1.107-0.964 1.107s-0.964-0.495-0.964-1.107v-5.112z"></path>
      <path fill="#f8f8f8" style="fill: var(--color2, #f8f8f8)"
            d="M17.349 10.36c0-0.611 0.604-1.107 1.349-1.107s1.349 0.495 1.349 1.107v5.112c0 0.611-0.604 1.107-1.349 1.107s-1.349-0.495-1.349-1.107v-5.112z"></path>
      <path fill="#f8f8f8" style="fill: var(--color2, #f8f8f8)"
            d="M21.205 10.36c0-0.611 0.432-1.107 0.964-1.107s0.964 0.495 0.964 1.107v5.112c0 0.611-0.432 1.107-0.964 1.107s-0.964-0.495-0.964-1.107v-5.112z"></path>
      <path fill="#050505" style="fill: var(--color3, #050505)"
            d="M28.184 3.131c0.289-0.030 0.581-0.045 0.878-0.045 3.714 0 6.861 2.413 7.938 5.746-0.289 0.030-0.581 0.045-0.878 0.045-3.714 0-6.861-2.413-7.938-5.746z"></path>
    </symbol>
  </defs>
</svg>
